<svg width="781" height="781" viewBox="0 0 781 781" fill="none" xmlns="http://www.w3.org/2000/svg">
<g clip-path="url(#clip0_48_3)">
<path d="M390.5 0C313.267 0 237.767 22.9024 173.55 65.8111C109.333 108.72 59.2812 169.708 29.7252 241.062C0.169198 312.417 -7.56401 390.933 7.50352 466.683C22.5711 542.432 59.7626 612.013 114.375 666.625C168.987 721.238 238.568 758.429 314.317 773.497C390.067 788.564 468.584 780.831 539.938 751.275C611.293 721.719 672.28 671.668 715.189 607.45C758.098 543.233 781 467.734 781 390.5C780.888 286.967 739.71 187.707 666.502 114.498C593.293 41.2898 494.033 0.111979 390.5 0ZM671.888 227.792H567.071C543.608 173.414 512.713 122.555 475.271 76.6682C558.138 99.2172 628.781 153.514 671.888 227.792ZM536.938 390.5C536.671 423.632 531.45 456.538 521.448 488.125H259.553C249.551 456.538 244.33 423.632 244.063 390.5C244.33 357.368 249.551 324.462 259.553 292.875H521.448C531.45 324.462 536.671 357.368 536.938 390.5ZM285.651 553.208H495.349C467.729 607.739 432.419 658.02 390.5 702.51C348.566 658.032 313.254 607.75 285.651 553.208ZM285.651 227.792C313.271 173.261 348.582 122.98 390.5 78.4905C432.434 122.968 467.746 173.25 495.349 227.792H285.651ZM305.892 76.6682C268.393 122.545 237.443 173.405 213.929 227.792H109.112C152.258 153.481 222.965 99.179 305.892 76.6682ZM80.0852 292.875H191.996C183.56 324.738 179.186 357.54 178.979 390.5C179.186 423.46 183.56 456.262 191.996 488.125H80.0852C60.0832 424.578 60.0832 356.422 80.0852 292.875ZM109.112 553.208H213.929C237.443 607.595 268.393 658.455 305.892 704.332C222.965 681.821 152.258 627.519 109.112 553.208ZM475.271 704.332C512.713 658.445 543.608 607.586 567.071 553.208H671.888C628.781 627.486 558.138 681.783 475.271 704.332ZM700.915 488.125H589.004C597.441 456.262 601.814 423.46 602.021 390.5C601.814 357.54 597.441 324.738 589.004 292.875H700.85C720.852 356.422 720.852 424.578 700.85 488.125H700.915Z" fill="black"/>
</g>
<path d="M563.999 169.605C572.121 168.561 581.628 168.784 590.909 170.953C600 173.078 612.244 177.892 621.346 188.866L621.347 188.865C630.058 199.353 634.159 212.918 632.717 226.477L632.716 226.476C631.663 236.404 627.796 244.117 624.497 249.402C621.812 253.704 617.557 259.13 616.77 260.207L616.758 260.223C613.304 264.941 609.906 269.701 606.564 274.503L606.506 274.587L606.447 274.67C595.013 290.863 583.776 307.194 572.739 323.658C545.472 364.545 518.989 405.949 493.3 447.849C477.043 474.406 461.05 501.127 445.32 528.009L445.321 528.01C440.669 535.989 436.058 543.993 431.485 552.023L431.461 552.066L431.437 552.108C429.295 555.84 425.146 563.465 420.973 569.403L420.974 569.404C415.828 576.732 409.695 583.309 402.749 588.951L402.72 588.975L402.691 588.999C382.298 605.482 356.198 613.198 330.12 610.456V610.457C330.095 610.454 330.069 610.451 330.044 610.448C330.019 610.446 329.994 610.444 329.969 610.441V610.44C310.755 608.459 292.556 600.836 277.666 588.528L277.641 588.507C264.575 577.683 257.245 565.576 251.842 557.897L251.836 557.89L251.831 557.882C247.817 552.169 243.732 546.503 239.581 540.883L239.534 540.818C228.003 525.121 216.074 509.719 203.758 494.626L203.736 494.599C194.888 483.729 185.84 473.024 176.597 462.487L176.579 462.468C173.167 458.572 163.461 448.776 157.555 439.634C150.003 427.943 144.961 413.123 147.798 394.723V394.722C150.977 374.104 162.026 360.318 175.308 350.258L175.314 350.253C194.385 335.817 218.423 329.585 242.101 332.929H242.102C242.114 332.93 242.127 332.932 242.14 332.934C242.197 332.942 242.255 332.95 242.312 332.958L242.312 332.959C256.61 334.944 270.208 340.368 281.938 348.763L283.073 349.589L283.075 349.59C294.486 358.031 306.64 373.192 311.577 378.924H311.576C318.986 387.475 326.261 396.14 333.402 404.915C355.302 375.227 377.888 346.049 401.142 317.405C427.967 284.234 455.923 251.992 484.959 220.735L484.974 220.721L484.987 220.705C488.16 217.299 491.376 213.943 494.423 210.764C497.519 207.533 500.441 204.485 503.273 201.448L503.28 201.44C518.874 184.735 537.247 172.504 563.999 169.605Z" fill="#F0F0F0" stroke="black" stroke-width="60"/>
<defs>
<clipPath id="clip0_48_3">
<rect width="781" height="781" fill="white"/>
</clipPath>
</defs>
</svg>
