<svg width="1024" height="931" viewBox="0 0 1024 931" fill="none" xmlns="http://www.w3.org/2000/svg">
<g filter="url(#filter0_dddd_30_2)">
<g clip-path="url(#clip0_30_2)">
<path d="M511.5 28C434.267 28 358.767 50.9024 294.55 93.8111C230.333 136.72 180.281 197.708 150.725 269.062C121.169 340.417 113.436 418.933 128.504 494.683C143.571 570.432 180.763 640.013 235.375 694.625C289.987 749.238 359.568 786.429 435.317 801.497C511.067 816.564 589.584 808.831 660.938 779.275C732.293 749.719 793.28 699.668 836.189 635.45C879.098 571.233 902 495.734 902 418.5C901.888 314.967 860.71 215.707 787.502 142.498C714.293 69.2898 615.033 28.112 511.5 28ZM792.888 255.792H688.071C664.608 201.414 633.713 150.555 596.271 104.668C679.138 127.217 749.781 181.514 792.888 255.792ZM657.938 418.5C657.671 451.632 652.45 484.538 642.448 516.125H380.553C370.551 484.538 365.33 451.632 365.063 418.5C365.33 385.368 370.551 352.462 380.553 320.875H642.448C652.45 352.462 657.671 385.368 657.938 418.5ZM406.651 581.208H616.349C588.729 635.739 553.419 686.02 511.5 730.51C469.566 686.032 434.254 635.75 406.651 581.208ZM406.651 255.792C434.271 201.261 469.582 150.98 511.5 106.491C553.434 150.968 588.746 201.25 616.349 255.792H406.651ZM426.892 104.668C389.393 150.545 358.443 201.405 334.929 255.792H230.112C273.258 181.481 343.965 127.179 426.892 104.668ZM201.085 320.875H312.996C304.56 352.738 300.186 385.54 299.979 418.5C300.186 451.46 304.56 484.262 312.996 516.125H201.085C181.083 452.578 181.083 384.422 201.085 320.875ZM230.112 581.208H334.929C358.443 635.595 389.393 686.455 426.892 732.332C343.965 709.821 273.258 655.519 230.112 581.208ZM596.271 732.332C633.713 686.445 664.608 635.586 688.071 581.208H792.888C749.781 655.486 679.138 709.783 596.271 732.332ZM821.915 516.125H710.004C718.441 484.262 722.814 451.46 723.021 418.5C722.814 385.54 718.441 352.738 710.004 320.875H821.85C841.852 384.422 841.852 452.578 821.85 516.125H821.915Z" fill="black"/>
</g>
</g>
<path d="M684.999 197.605C693.121 196.561 702.628 196.784 711.909 198.953C721 201.078 733.244 205.892 742.346 216.866L742.347 216.865C751.058 227.353 755.159 240.918 753.717 254.477L753.716 254.476C752.663 264.404 748.796 272.117 745.497 277.402C742.812 281.704 738.555 287.131 737.769 288.207L737.764 288.215L737.758 288.223C734.304 292.941 730.906 297.701 727.564 302.503L727.506 302.587L727.447 302.67C716.013 318.863 704.776 335.194 693.739 351.658C666.472 392.545 639.989 433.949 614.3 475.849C598.043 502.406 582.05 529.127 566.32 556.009L566.321 556.01C561.669 563.989 557.058 571.993 552.485 580.023L552.461 580.066L552.436 580.108C550.294 583.84 546.146 591.465 541.973 597.403L541.974 597.404C536.828 604.732 530.695 611.309 523.749 616.951L523.72 616.975L523.691 616.999C503.298 633.482 477.198 641.198 451.12 638.456V638.457C451.095 638.454 451.069 638.451 451.044 638.448C451.019 638.446 450.994 638.444 450.969 638.441V638.44C431.755 636.459 413.556 628.836 398.666 616.528L398.641 616.507C385.575 605.683 378.245 593.576 372.842 585.897L372.836 585.89L372.831 585.882C368.817 580.169 364.732 574.503 360.581 568.883L360.534 568.818C349.003 553.121 337.074 537.719 324.758 522.626L324.736 522.599C315.888 511.729 306.84 501.024 297.597 490.487L297.579 490.468C294.167 486.572 284.461 476.777 278.555 467.634C271.003 455.943 265.961 441.123 268.798 422.723V422.722C271.977 402.104 283.026 388.318 296.308 378.258L296.314 378.253C315.385 363.817 339.423 357.585 363.101 360.929H363.102C363.114 360.93 363.127 360.932 363.14 360.934C363.197 360.942 363.255 360.95 363.312 360.958L363.312 360.959C377.61 362.944 391.208 368.368 402.938 376.763L404.073 377.589L404.075 377.59C415.486 386.031 427.64 401.192 432.577 406.924H432.576C439.986 415.475 447.261 424.14 454.402 432.915C476.302 403.227 498.888 374.049 522.142 345.405C548.967 312.234 576.923 279.992 605.959 248.735L605.974 248.721L605.987 248.705C609.16 245.299 612.376 241.943 615.423 238.764C618.519 235.533 621.441 232.485 624.273 229.448L624.28 229.44C639.874 212.735 658.247 200.504 684.999 197.605Z" fill="#F0F0F0" stroke="black" stroke-width="60"/>
<defs>
<filter id="filter0_dddd_30_2" x="-29" y="0" width="1081" height="1333" filterUnits="userSpaceOnUse" color-interpolation-filters="sRGB">
<feFlood flood-opacity="0" result="BackgroundImageFix"/>
<feColorMatrix in="SourceAlpha" type="matrix" values="0 0 0 0 0 0 0 0 0 0 0 0 0 0 0 0 0 0 127 0" result="hardAlpha"/>
<feOffset dy="23"/>
<feGaussianBlur stdDeviation="25.5"/>
<feColorMatrix type="matrix" values="0 0 0 0 0 0 0 0 0 0 0 0 0 0 0 0 0 0 0.1 0"/>
<feBlend mode="normal" in2="BackgroundImageFix" result="effect1_dropShadow_30_2"/>
<feColorMatrix in="SourceAlpha" type="matrix" values="0 0 0 0 0 0 0 0 0 0 0 0 0 0 0 0 0 0 127 0" result="hardAlpha"/>
<feOffset dy="94"/>
<feGaussianBlur stdDeviation="47"/>
<feColorMatrix type="matrix" values="0 0 0 0 0 0 0 0 0 0 0 0 0 0 0 0 0 0 0.09 0"/>
<feBlend mode="normal" in2="effect1_dropShadow_30_2" result="effect2_dropShadow_30_2"/>
<feColorMatrix in="SourceAlpha" type="matrix" values="0 0 0 0 0 0 0 0 0 0 0 0 0 0 0 0 0 0 127 0" result="hardAlpha"/>
<feOffset dy="210"/>
<feGaussianBlur stdDeviation="63"/>
<feColorMatrix type="matrix" values="0 0 0 0 0 0 0 0 0 0 0 0 0 0 0 0 0 0 0.05 0"/>
<feBlend mode="normal" in2="effect2_dropShadow_30_2" result="effect3_dropShadow_30_2"/>
<feColorMatrix in="SourceAlpha" type="matrix" values="0 0 0 0 0 0 0 0 0 0 0 0 0 0 0 0 0 0 127 0" result="hardAlpha"/>
<feOffset dy="374"/>
<feGaussianBlur stdDeviation="75"/>
<feColorMatrix type="matrix" values="0 0 0 0 0 0 0 0 0 0 0 0 0 0 0 0 0 0 0.01 0"/>
<feBlend mode="normal" in2="effect3_dropShadow_30_2" result="effect4_dropShadow_30_2"/>
<feBlend mode="normal" in="SourceGraphic" in2="effect4_dropShadow_30_2" result="shape"/>
</filter>
<clipPath id="clip0_30_2">
<rect width="781" height="781" fill="white" transform="translate(121 28)"/>
</clipPath>
</defs>
</svg>
